<?xml version="1.0" encoding="UTF-8" standalone="no"?><!DOCTYPE svg PUBLIC "-//W3C//DTD SVG 1.1//EN" "http://www.w3.org/Graphics/SVG/1.1/DTD/svg11.dtd"><svg width="100%" height="100%" viewBox="0 0 24 24" version="1.1" xmlns="http://www.w3.org/2000/svg" xmlns:xlink="http://www.w3.org/1999/xlink" xml:space="preserve" xmlns:serif="http://www.serif.com/" style="fill-rule:evenodd;clip-rule:evenodd;stroke-linejoin:round;stroke-miterlimit:2;"><rect id="apachemaven" x="0" y="0" width="24" height="24" style="fill:none;"/><clipPath id="_clip1"><rect id="apachemaven.svg" x="0" y="0" width="24" height="24"/></clipPath><g clip-path="url(#_clip1)"><path d="M4.236,0.001c-0.312,-0.013 -0.665,0.071 -0.828,0.456c-0.158,0.374 -0.283,1.188 -0.34,2.276l1.224,0.593c-0.021,-0.779 0.008,-1.513 0.087,-2.179c-0.025,0.219 -0.077,0.907 -0.006,2.149c0.019,0.342 0.049,0.727 0.088,1.152c0.002,0.024 0.002,0.046 0.007,0.067c0.036,0.371 0.081,0.771 0.139,1.208c0.05,0.376 0.105,0.774 0.173,1.204c0.055,0.368 0.122,0.753 0.192,1.16l-0.01,0.01c0.014,0.01 0.016,0.02 0.015,0.026c0.009,0.054 0.019,0.104 0.029,0.159c0.031,0.162 0.059,0.327 0.093,0.493c0.035,0.181 0.072,0.364 0.109,0.554c0.018,0.095 0.036,0.191 0.056,0.289c0.06,0.292 0.124,0.59 0.19,0.897c0.082,0.379 0.171,0.767 0.266,1.171c0.09,0.382 0.187,0.781 0.288,1.186c0.099,0.387 0.198,0.782 0.308,1.192c0.096,0.362 0.199,0.735 0.304,1.117c0.003,0.018 0.012,0.038 0.015,0.056c0.106,0.376 0.216,0.764 0.331,1.159c0.001,0.009 0.003,0.018 0.008,0.026c0.018,0.059 0.033,0.114 0.051,0.173c0.077,0.262 0.158,0.533 0.241,0.805c-0.1,-0.041 -0.198,-0.086 -0.295,-0.134c-0.063,-0.218 -0.125,-0.436 -0.187,-0.654c-0.021,-0.077 -0.042,-0.149 -0.063,-0.227l-0.003,-0.002l-0.005,-0.002c-0.087,-0.301 -0.167,-0.606 -0.256,-0.916c-0.022,-0.086 -0.044,-0.173 -0.069,-0.263c-0.104,-0.388 -0.207,-0.781 -0.313,-1.178c-0.099,-0.384 -0.196,-0.769 -0.29,-1.154c-0.095,-0.389 -0.186,-0.781 -0.278,-1.173c-0.092,-0.399 -0.18,-0.8 -0.264,-1.202c-0.085,-0.397 -0.163,-0.799 -0.242,-1.195c-0.029,-0.143 -0.055,-0.287 -0.08,-0.431c-0.045,-0.245 -0.087,-0.492 -0.13,-0.739c-0.004,-0.013 -0.005,-0.028 -0.009,-0.04l-1.046,-0.534l1.05,0.532c-0.057,-0.387 -0.117,-0.771 -0.175,-1.152c-0.055,-0.399 -0.107,-0.8 -0.154,-1.2c-0.047,-0.402 -0.084,-0.804 -0.113,-1.207c-0.002,-0.023 -0.003,-0.046 -0.004,-0.069c-0.027,-0.378 -0.045,-0.757 -0.054,-1.136l-1.222,-0.588c-0.002,0.074 -0.008,0.15 -0.011,0.23c-0.013,0.31 -0.021,0.62 -0.023,0.93c-0.003,0.368 -0,0.752 0.006,1.155c0.009,0.37 0.024,0.756 0.044,1.148c0.02,0.336 0.042,0.676 0.069,1.022c0.001,0.015 0.003,0.024 0.004,0.039l0.005,0.003c0.003,0.023 0.007,0.05 0.006,0.076c0.033,0.368 0.065,0.741 0.109,1.117c0.042,0.381 0.09,0.763 0.147,1.149c0.048,0.326 0.1,0.649 0.154,0.975c0.011,0.064 0.024,0.132 0.035,0.196c0.075,0.404 0.155,0.794 0.242,1.158c0.097,0.414 0.201,0.801 0.306,1.163c0.071,0.236 0.14,0.464 0.211,0.68c0.061,0.182 0.128,0.365 0.193,0.544c0.155,0.422 0.327,0.832 0.512,1.232l0.006,0.003c0.005,0.017 0.011,0.035 0.019,0.051c0.226,0.484 0.475,0.951 0.755,1.395c0.01,0.013 0.019,0.033 0.029,0.046c-0.454,-0.183 -1.258,-0.098 -1.252,-0.097c0.83,0.288 1.558,0.641 2.017,1.175c-0.183,0.201 -0.524,0.353 -0.954,0.478c0.594,0.064 0.925,-0.04 1.046,-0.093c-0.31,0.259 -0.483,0.732 -0.636,1.241c0.35,-0.571 0.696,-0.949 1.033,-1.093c0.078,0.257 0.162,0.523 0.245,0.787c-0.727,1.42 -1.47,2.946 -2.225,4.554c0.204,-0.027 0.34,-0.145 0.431,-0.312c0.129,-0.281 0.834,-1.78 1.907,-3.873c0.413,1.302 0.88,2.678 1.386,4.106c0.111,-0.143 0.124,-0.302 0.077,-0.464c-0.098,-0.27 -0.634,-1.797 -1.305,-3.946c0.153,-0.296 0.318,-0.611 0.484,-0.927c0.138,0.044 0.272,0.097 0.403,0.159c0.195,0.187 0.337,0.493 0.464,0.833c0.033,-0.39 -0.071,-0.776 -0.333,-1.1c1.336,0.258 2.548,0.089 3.288,-0.809c0.067,-0.084 0.13,-0.169 0.19,-0.258c-0.325,0.304 -0.682,0.404 -1.313,0.273c0.996,-0.281 1.525,-0.617 2.037,-1.221c0.129,-0.155 0.252,-0.314 0.369,-0.478c-0.942,0.722 -1.926,0.819 -2.899,0.491c-0.014,-0.006 -0.028,-0.008 -0.045,-0.015c0.914,0.02 2.203,-0.476 3.092,-1.191c0.409,-0.33 0.796,-0.729 1.17,-1.211c0.281,-0.358 0.549,-0.761 0.82,-1.215c0.234,-0.393 0.468,-0.825 0.699,-1.294c-0.221,0.077 -0.47,0.121 -0.738,0.139l-0.144,0.007c-0.048,0.003 -0.095,0 -0.147,0.002c0.884,-0.198 1.5,-0.739 1.994,-1.446c-0.241,0.117 -0.628,0.259 -1.07,0.294c-0.058,0.006 -0.12,0.007 -0.182,0.007c-0.014,-0.002 -0.028,-0 -0.047,-0.003c0.306,-0.078 0.573,-0.177 0.811,-0.308c0.051,-0.026 0.098,-0.057 0.145,-0.088c0.074,-0.046 0.143,-0.098 0.213,-0.149c0.043,-0.037 0.086,-0.069 0.129,-0.105c0.101,-0.088 0.194,-0.184 0.279,-0.287c0.029,-0.034 0.058,-0.063 0.082,-0.098c0.036,-0.051 0.071,-0.098 0.102,-0.146c0.133,-0.19 0.258,-0.386 0.375,-0.586c0.047,-0.08 0.092,-0.16 0.136,-0.242c0.014,-0.031 0.032,-0.057 0.046,-0.088c0.041,-0.084 0.08,-0.159 0.109,-0.227c0.043,-0.098 0.074,-0.179 0.092,-0.238c-0.034,0.021 -0.07,0.038 -0.107,0.051c-0.273,0.112 -0.726,0.189 -1.085,0.203c-0.004,-0.001 -0.009,-0.002 -0.014,0.002c-0.02,-0 -0.044,0.001 -0.066,0.002c0.718,-0.215 1.066,-0.453 1.421,-0.82c0.096,-0.1 0.192,-0.209 0.29,-0.323c0.297,-0.342 0.595,-0.721 0.865,-1.104c0.263,-0.37 0.503,-0.739 0.69,-1.072c0.122,-0.215 0.222,-0.415 0.3,-0.593c0.062,-0.148 0.119,-0.299 0.171,-0.45c-0.494,0.01 -0.987,0.01 -1.48,0c0.495,0.01 1.016,0.007 1.485,-0.005c0.499,-1.485 0.061,-2.262 0.061,-2.262c0,0 -0.525,-1.212 -1.4,-0.851c-0.425,0.175 -1.172,0.731 -2.082,1.562l0.514,1.448c0.603,-0.643 1.209,-1.21 1.801,-1.684c-0.194,0.157 -0.782,0.67 -1.712,1.726c-0.256,0.29 -0.538,0.624 -0.844,0.997c-0.018,0.021 -0.035,0.038 -0.048,0.06c-0.266,0.326 -0.546,0.685 -0.847,1.082c-0.259,0.342 -0.531,0.707 -0.818,1.107c-0.248,0.34 -0.499,0.703 -0.767,1.087l-0.015,-0.001c0.002,0.02 -0.005,0.029 -0.01,0.033c-0.036,0.051 -0.066,0.099 -0.103,0.151c-0.103,0.156 -0.212,0.311 -0.316,0.472c-0.115,0.173 -0.232,0.35 -0.354,0.532c-0.06,0.091 -0.122,0.182 -0.183,0.277c-0.184,0.282 -0.369,0.573 -0.56,0.873c-0.242,0.382 -0.481,0.767 -0.716,1.154c-0.24,0.393 -0.476,0.787 -0.711,1.183c-0.228,0.39 -0.462,0.788 -0.699,1.204c-0.211,0.369 -0.424,0.751 -0.643,1.141c-0.012,0.018 -0.02,0.04 -0.032,0.057c-0.213,0.387 -0.433,0.787 -0.655,1.197c-0.006,0.008 -0.012,0.017 -0.014,0.026c-0.032,0.062 -0.065,0.119 -0.097,0.181c-0.17,0.317 -0.346,0.642 -0.519,0.978c-0.001,0.005 -0.006,0.009 -0.007,0.014c-0.026,0.048 -0.051,0.092 -0.073,0.141c-0.116,0.22 -0.221,0.43 -0.449,0.868c-0.07,-0.067 -0.147,-0.127 -0.23,-0.178c0.119,-0.225 0.217,-0.42 0.341,-0.654c0.046,-0.088 0.097,-0.176 0.144,-0.269c0.013,-0.026 0.026,-0.048 0.04,-0.075c0.176,-0.325 0.358,-0.66 0.546,-1.003c0.045,-0.079 0.084,-0.154 0.129,-0.233l0.001,-0.004l-0.002,-0.006c0.168,-0.311 0.346,-0.62 0.521,-0.94c0.051,-0.087 0.102,-0.175 0.153,-0.267c0.224,-0.395 0.454,-0.793 0.684,-1.197c0.225,-0.388 0.453,-0.775 0.684,-1.159c0.232,-0.389 0.47,-0.776 0.707,-1.165c0.244,-0.396 0.491,-0.788 0.743,-1.178c0.247,-0.387 0.503,-0.772 0.754,-1.154c0.091,-0.138 0.183,-0.272 0.279,-0.41c0.158,-0.234 0.32,-0.466 0.482,-0.699c0.007,-0.013 0.018,-0.026 0.025,-0.039l-0.433,-1.307l0.438,1.308c0.261,-0.356 0.518,-0.713 0.774,-1.065c0.278,-0.373 0.554,-0.736 0.83,-1.09c0.286,-0.367 0.576,-0.718 0.868,-1.06c0.018,-0.022 0.035,-0.043 0.051,-0.06c0.287,-0.333 0.571,-0.652 0.858,-0.957l-0.515,-1.444c-0.06,0.058 -0.126,0.114 -0.192,0.176c-0.257,0.239 -0.51,0.482 -0.758,0.73c-0.295,0.294 -0.598,0.606 -0.912,0.935c-0.287,0.305 -0.581,0.628 -0.877,0.96c-0.251,0.286 -0.503,0.576 -0.756,0.877c-0.012,0.012 -0.018,0.021 -0.029,0.034l0.003,0.007c-0.017,0.021 -0.035,0.045 -0.056,0.065c-0.266,0.323 -0.537,0.649 -0.8,0.985c-0.271,0.343 -0.536,0.691 -0.795,1.043c-0.22,0.301 -0.437,0.603 -0.651,0.907c-0.042,0.061 -0.085,0.126 -0.127,0.186c-0.26,0.385 -0.506,0.762 -0.725,1.125c-0.25,0.409 -0.475,0.804 -0.677,1.178c-0.127,0.237 -0.251,0.475 -0.371,0.715c-0.095,0.196 -0.186,0.396 -0.277,0.592c-0.21,0.463 -0.398,0.929 -0.566,1.399l0.002,0.006c-0.01,0.018 -0.019,0.037 -0.026,0.057c-0.107,0.303 -0.204,0.608 -0.292,0.914c-0.14,0.174 -0.303,0.328 -0.483,0.46c-0.042,-0.052 -0.088,-0.098 -0.132,-0.147c0.414,-0.598 0.738,-1.439 0.827,-2.216c0.053,-0.461 0.048,-0.952 -0.015,-1.488c-0.046,-0.4 -0.127,-0.82 -0.239,-1.274c-0.105,-0.421 -0.226,-0.837 -0.364,-1.248c-0.091,0.185 -0.22,0.368 -0.378,0.546c-0.029,0.031 -0.058,0.062 -0.087,0.093c-0.028,0.032 -0.059,0.06 -0.091,0.094c0.434,-0.674 0.485,-1.398 0.356,-2.149c-0.078,0.223 -0.233,0.553 -0.49,0.849c-0.035,0.041 -0.072,0.08 -0.11,0.117c-0.01,0.008 -0.017,0.018 -0.031,0.028c0.144,-0.24 0.25,-0.467 0.319,-0.698c0.016,-0.048 0.026,-0.096 0.037,-0.145c0.016,-0.075 0.03,-0.151 0.041,-0.226c0.004,-0.05 0.011,-0.096 0.016,-0.146c0.009,-0.118 0.008,-0.236 -0.003,-0.354c-0.003,-0.039 -0.003,-0.075 -0.009,-0.111c-0.01,-0.055 -0.017,-0.107 -0.027,-0.157c-0.034,-0.202 -0.077,-0.403 -0.127,-0.602c-0.02,-0.079 -0.042,-0.158 -0.065,-0.236c-0.011,-0.028 -0.015,-0.056 -0.026,-0.084c-0.026,-0.079 -0.048,-0.15 -0.072,-0.21c-0.026,-0.071 -0.056,-0.14 -0.09,-0.207c-0.008,0.034 -0.02,0.067 -0.036,0.099c-0.102,0.24 -0.34,0.568 -0.557,0.8c-0.003,0.002 -0.006,0.005 -0.007,0.011c-0.013,0.012 -0.027,0.027 -0.041,0.041c0.319,-0.58 0.39,-0.946 0.386,-1.398c-0.003,-0.128 -0.009,-0.256 -0.019,-0.383c-0.026,-0.413 -0.073,-0.824 -0.141,-1.232c-0.064,-0.397 -0.143,-0.777 -0.232,-1.103c-0.057,-0.211 -0.118,-0.399 -0.179,-0.56c-0.053,-0.132 -0.11,-0.262 -0.172,-0.389c-0.432,0.444 -0.95,0.949 -1.395,1.348c0.445,-0.399 0.964,-0.905 1.396,-1.354c-0.609,-1.244 -1.367,-1.461 -1.367,-1.461c-0,-0 -0.271,-0.11 -0.582,-0.123l-0,0Zm3.38,15.782c0.011,0.028 0.021,0.056 0.032,0.084c-0.059,0.033 -0.117,0.068 -0.179,0.098c-0.013,0.004 -0.022,0.011 -0.038,0.018c0.063,-0.06 0.124,-0.128 0.185,-0.2Zm-0.606,1.617c0.131,0.137 0.253,0.252 0.358,0.33c0.017,0.058 0.051,0.166 0.07,0.227c-0.08,0.011 -0.162,0.036 -0.245,0.059c-0.011,-0.037 -0.02,-0.066 -0.031,-0.103c-0.026,-0.084 -0.049,-0.171 -0.077,-0.259c-0.008,-0.025 -0.014,-0.046 -0.022,-0.071c-0.017,-0.059 -0.035,-0.123 -0.053,-0.183Zm0.266,0.885c0.094,-0.002 0.183,0.002 0.268,0.01c0.027,0.088 0.034,0.11 0.071,0.229c0.076,-0.016 0.159,-0.014 0.245,-0.004c-0.107,0.203 -0.214,0.413 -0.321,0.621c-0.087,-0.282 -0.173,-0.556 -0.263,-0.856Z" style="fill:url(#_Linear2);fill-rule:nonzero;"/></g><defs><linearGradient id="_Linear2" x1="0" y1="0" x2="1" y2="0" gradientUnits="userSpaceOnUse" gradientTransform="matrix(24,24,-24,24,1.77636e-15,0)"><stop offset="0" style="stop-color:#e200ff;stop-opacity:1"/><stop offset="1" style="stop-color:#00769c;stop-opacity:1"/></linearGradient></defs></svg>