<?xml version="1.0" encoding="UTF-8" standalone="no"?><!DOCTYPE svg PUBLIC "-//W3C//DTD SVG 1.1//EN" "http://www.w3.org/Graphics/SVG/1.1/DTD/svg11.dtd"><svg width="100%" height="100%" viewBox="0 0 25 24" version="1.1" xmlns="http://www.w3.org/2000/svg" xmlns:xlink="http://www.w3.org/1999/xlink" xml:space="preserve" xmlns:serif="http://www.serif.com/" style="fill-rule:evenodd;clip-rule:evenodd;stroke-linejoin:round;stroke-miterlimit:2;"><rect id="discord" x="0.837" y="0" width="24" height="24" style="fill:none;"/><path d="M21.059,0c1.406,0 2.54,1.137 2.607,2.475l0,21.525l-2.677,-2.273l-1.47,-1.338l-1.604,-1.398l0.67,2.205l-14.038,-0c-1.402,-0 -2.54,-1.065 -2.54,-2.476l0,-16.24c0,-1.338 1.14,-2.477 2.545,-2.477l16.5,-0l0.007,-0.003Zm-6.118,5.683l-0.03,-0l-0.202,0.2c2.073,0.6 3.076,1.537 3.076,1.537c-1.336,-0.668 -2.54,-1.002 -3.744,-1.137c-0.87,-0.135 -1.74,-0.064 -2.475,-0l-0.2,-0c-0.47,-0 -1.47,0.2 -2.81,0.735c-0.467,0.203 -0.735,0.336 -0.735,0.336c0,-0 1.002,-1.002 3.21,-1.537l-0.135,-0.135c0,-0 -1.672,-0.064 -3.477,1.27c0,-0 -1.805,3.144 -1.805,7.02c0,-0 1,1.74 3.743,1.806c0,-0 0.4,-0.533 0.805,-1.002c-1.54,-0.468 -2.14,-1.404 -2.14,-1.404c0,-0 0.134,0.066 0.335,0.2l0.06,-0c0.03,-0 0.044,0.015 0.06,0.03l0,0.006c0.016,0.016 0.03,0.03 0.06,0.03c0.33,0.136 0.66,0.27 0.93,0.4c0.466,0.202 1.065,0.403 1.8,0.536c0.93,0.135 1.996,0.2 3.21,-0c0.6,-0.135 1.2,-0.267 1.8,-0.535c0.39,-0.2 0.87,-0.4 1.397,-0.737c0,-0 -0.6,0.936 -2.205,1.404c0.33,0.466 0.795,1 0.795,1c2.744,-0.06 3.81,-1.8 3.87,-1.726c0,-3.87 -1.815,-7.02 -1.815,-7.02c-1.635,-1.214 -3.165,-1.26 -3.435,-1.26l0.056,-0.02l0.001,0.003Zm0.168,4.413c0.703,-0 1.27,0.6 1.27,1.335c0,0.74 -0.57,1.34 -1.27,1.34c-0.7,-0 -1.27,-0.6 -1.27,-1.334c0.002,-0.74 0.573,-1.338 1.27,-1.338l0,-0.003Zm-4.543,-0c0.7,-0 1.266,0.6 1.266,1.335c0,0.74 -0.57,1.34 -1.27,1.34c-0.7,-0 -1.27,-0.6 -1.27,-1.334c0,-0.74 0.57,-1.338 1.27,-1.338l0.004,-0.003Z" style="fill:url(#_Linear1);fill-rule:nonzero;"/><defs><linearGradient id="_Linear1" x1="0" y1="0" x2="1" y2="0" gradientUnits="userSpaceOnUse" gradientTransform="matrix(24,24,-26.594,26.594,0.837269,0)"><stop offset="0" style="stop-color:#e200ff;stop-opacity:1"/><stop offset="1" style="stop-color:#00769c;stop-opacity:1"/></linearGradient></defs></svg>