<?xml version="1.0" encoding="UTF-8" standalone="no"?><!DOCTYPE svg PUBLIC "-//W3C//DTD SVG 1.1//EN" "http://www.w3.org/Graphics/SVG/1.1/DTD/svg11.dtd"><svg width="100%" height="100%" viewBox="0 0 25 24" version="1.1" xmlns="http://www.w3.org/2000/svg" xmlns:xlink="http://www.w3.org/1999/xlink" xml:space="preserve" xmlns:serif="http://www.serif.com/" style="fill-rule:evenodd;clip-rule:evenodd;stroke-linejoin:round;stroke-miterlimit:2;"><rect id="intellijidea" x="0.675" y="0" width="24" height="24" style="fill:none;"/><clipPath id="_clip1"><rect x="0.675" y="0" width="24" height="24"/></clipPath><g clip-path="url(#_clip1)"><path d="M0.675,0l-0,24l24,0l-0,-24l-24,0Zm3.723,3.111l5,0l-0,1.834l-1.39,0l-0,6.277l1.39,0l-0,1.834l-5,0l-0,-1.834l1.444,0l-0,-6.277l-1.444,0l-0,-1.834Zm11.055,0l2.222,0l-0,6.5c-0,0.612 -0.055,1.111 -0.222,1.556c-0.167,0.444 -0.39,0.777 -0.723,1.11c-0.277,0.279 -0.666,0.557 -1.11,0.668c-0.46,0.183 -0.951,0.277 -1.445,0.278c-0.778,0 -1.444,-0.167 -1.944,-0.445c-0.485,-0.275 -0.917,-0.633 -1.279,-1.056l1.39,-1.555c0.277,0.334 0.555,0.555 0.833,0.722c0.277,0.167 0.611,0.278 0.945,0.278c0.389,0 0.721,-0.111 1,-0.389c0.221,-0.278 0.333,-0.667 0.333,-1.278l-0,-6.389Zm-12.556,16.389l9,0l-0,1.5l-9,0l-0,-1.5Z" style="fill:url(#_Linear2);fill-rule:nonzero;"/></g><defs><linearGradient id="_Linear2" x1="0" y1="0" x2="1" y2="0" gradientUnits="userSpaceOnUse" gradientTransform="matrix(24,24,-24,24,0.674538,5.32907e-15)"><stop offset="0" style="stop-color:#e200ff;stop-opacity:1"/><stop offset="1" style="stop-color:#00769c;stop-opacity:1"/></linearGradient></defs></svg>