<?xml version="1.0" encoding="UTF-8" standalone="no"?><!DOCTYPE svg PUBLIC "-//W3C//DTD SVG 1.1//EN" "http://www.w3.org/Graphics/SVG/1.1/DTD/svg11.dtd"><svg width="100%" height="100%" viewBox="0 0 25 24" version="1.1" xmlns="http://www.w3.org/2000/svg" xmlns:xlink="http://www.w3.org/1999/xlink" xml:space="preserve" xmlns:serif="http://www.serif.com/" style="fill-rule:evenodd;clip-rule:evenodd;stroke-linejoin:round;stroke-miterlimit:2;"><rect id="nodemon" x="0.21" y="0" width="24" height="24" style="fill:none;"/><path d="M22.54,7.851l-0.716,-0.398c1.101,-1.569 1.758,-3.927 0.934,-7.453c-0,0 -1.857,5.029 -5.59,4.863l-4.37,-2.431c-0.164,-0.092 -0.348,-0.144 -0.536,-0.15l-0.101,0c-0.189,0.006 -0.373,0.058 -0.538,0.15l-4.371,2.431c-3.733,0.167 -5.59,-4.863 -5.59,-4.863c-0.825,3.526 -0.166,5.884 0.934,7.453l-0.716,0.398c-0.361,0.198 -0.587,0.577 -0.589,0.988l0.022,14.591c-0,0.203 0.109,0.392 0.294,0.491c0.18,0.105 0.404,0.105 0.584,0l5.79,-3.204c0.366,-0.211 0.589,-0.582 0.589,-0.987l-0,-6.817c-0,-0.406 0.223,-0.783 0.588,-0.984l2.465,-1.372c0.18,-0.102 0.383,-0.155 0.59,-0.154c0.2,0 0.407,0.05 0.585,0.154l2.465,1.372c0.365,0.201 0.588,0.578 0.588,0.984l-0,6.817c-0,0.405 0.226,0.779 0.59,0.987l5.788,3.204c0.182,0.105 0.407,0.105 0.589,0c0.179,-0.098 0.291,-0.287 0.292,-0.491l0.019,-14.591c-0.001,-0.412 -0.228,-0.791 -0.589,-0.988Z" style="fill:url(#_Linear1);fill-rule:nonzero;"/><defs><linearGradient id="_Linear1" x1="0" y1="0" x2="1" y2="0" gradientUnits="userSpaceOnUse" gradientTransform="matrix(24,24,-24,24,0.20996,7.10543e-15)"><stop offset="0" style="stop-color:#e200ff;stop-opacity:1"/><stop offset="1" style="stop-color:#00769c;stop-opacity:1"/></linearGradient></defs></svg>