<?xml version="1.0" encoding="UTF-8" standalone="no"?><!DOCTYPE svg PUBLIC "-//W3C//DTD SVG 1.1//EN" "http://www.w3.org/Graphics/SVG/1.1/DTD/svg11.dtd"><svg width="100%" height="100%" viewBox="0 0 25 24" version="1.1" xmlns="http://www.w3.org/2000/svg" xmlns:xlink="http://www.w3.org/1999/xlink" xml:space="preserve" xmlns:serif="http://www.serif.com/" style="fill-rule:evenodd;clip-rule:evenodd;stroke-linejoin:round;stroke-miterlimit:2;"><rect id="nodedotjs" x="0.186" y="0" width="24" height="24" style="fill:none;"/><clipPath id="_clip1"><rect id="nodedotjs1" serif:id="nodedotjs" x="0.186" y="0" width="24" height="24"/></clipPath><g clip-path="url(#_clip1)"><clipPath id="_clip2"><rect id="nodedotjs.svg" x="0.373" y="0" width="24" height="24"/></clipPath><g clip-path="url(#_clip2)"><path d="M12.371,24c-0.321,0 -0.641,-0.084 -0.922,-0.247l-2.936,-1.737c-0.438,-0.245 -0.224,-0.332 -0.08,-0.383c0.585,-0.203 0.703,-0.25 1.328,-0.604c0.065,-0.037 0.151,-0.023 0.218,0.017l2.256,1.339c0.082,0.045 0.197,0.045 0.272,0l8.795,-5.076c0.082,-0.047 0.134,-0.141 0.134,-0.238l-0,-10.15c-0,-0.099 -0.053,-0.192 -0.137,-0.242l-8.791,-5.072c-0.081,-0.047 -0.189,-0.047 -0.271,0l-8.789,5.073c-0.085,0.049 -0.139,0.145 -0.139,0.241l-0,10.15c-0,0.097 0.054,0.189 0.139,0.235l2.409,1.392c1.307,0.654 2.108,-0.116 2.108,-0.89l-0,-10.021c-0,-0.142 0.114,-0.253 0.256,-0.253l1.115,0c0.139,0 0.255,0.112 0.255,0.253l-0,10.021c-0,1.745 -0.95,2.745 -2.604,2.745c-0.508,0 -0.909,0 -2.026,-0.551l-2.308,-1.327c-0.57,-0.329 -0.922,-0.945 -0.922,-1.604l-0,-10.15c-0,-0.659 0.353,-1.275 0.922,-1.603l8.795,-5.082c0.557,-0.315 1.296,-0.315 1.848,0l8.794,5.082c0.57,0.329 0.924,0.944 0.924,1.603l-0,10.15c-0,0.659 -0.354,1.273 -0.924,1.604l-8.794,5.078c-0.28,0.163 -0.599,0.247 -0.925,0.247Zm7.101,-10.007c-0,-1.9 -1.284,-2.406 -3.987,-2.763c-2.731,-0.361 -3.009,-0.548 -3.009,-1.187c-0,-0.528 0.235,-1.233 2.258,-1.233c1.807,0 2.473,0.389 2.747,1.607c0.024,0.115 0.129,0.199 0.247,0.199l1.141,0c0.071,0 0.138,-0.031 0.186,-0.081c0.048,-0.054 0.074,-0.123 0.067,-0.196c-0.177,-2.098 -1.571,-3.076 -4.388,-3.076c-2.508,0 -4.004,1.058 -4.004,2.833c-0,1.925 1.488,2.457 3.895,2.695c2.88,0.282 3.103,0.703 3.103,1.269c-0,0.983 -0.789,1.402 -2.642,1.402c-2.327,0 -2.839,-0.584 -3.011,-1.742c-0.02,-0.124 -0.126,-0.215 -0.253,-0.215l-1.137,0c-0.141,0 -0.254,0.112 -0.254,0.253c-0,1.482 0.806,3.248 4.655,3.248c2.788,0.001 4.386,-1.096 4.386,-3.013Z" style="fill:url(#_Linear3);fill-rule:nonzero;"/></g></g><defs><linearGradient id="_Linear3" x1="0" y1="0" x2="1" y2="0" gradientUnits="userSpaceOnUse" gradientTransform="matrix(24,24,-24,24,0.372691,1.42109e-14)"><stop offset="0" style="stop-color:#e200ff;stop-opacity:1"/><stop offset="1" style="stop-color:#00769c;stop-opacity:1"/></linearGradient></defs></svg>