<?xml version="1.0" encoding="UTF-8" standalone="no"?><!DOCTYPE svg PUBLIC "-//W3C//DTD SVG 1.1//EN" "http://www.w3.org/Graphics/SVG/1.1/DTD/svg11.dtd"><svg width="100%" height="100%" viewBox="0 0 24 25" version="1.1" xmlns="http://www.w3.org/2000/svg" xmlns:xlink="http://www.w3.org/1999/xlink" xml:space="preserve" xmlns:serif="http://www.serif.com/" style="fill-rule:evenodd;clip-rule:evenodd;stroke-linejoin:round;stroke-miterlimit:2;"><rect id="npm" x="0" y="0.837" width="24" height="24" style="fill:none;"/><g id="npm1" serif:id="npm"><path d="M1.763,0.837c-0.977,0 -1.763,0.786 -1.763,1.763l0,20.474c0,0.977 0.786,1.763 1.763,1.763l20.474,0c0.977,0 1.763,-0.786 1.763,-1.763l-0,-20.474c-0,-0.977 -0.786,-1.763 -1.763,-1.763l-20.474,0Zm3.367,5.323l13.837,0.019l-0.009,13.836l-3.464,0l0.01,-10.382l-3.456,0l-0.008,10.374l-6.927,0l0.017,-13.847Z" style="fill:url(#_Linear1);fill-rule:nonzero;"/></g><defs><linearGradient id="_Linear1" x1="0" y1="0" x2="1" y2="0" gradientUnits="userSpaceOnUse" gradientTransform="matrix(24,24,-24,24,0,0.837269)"><stop offset="0" style="stop-color:#e200ff;stop-opacity:1"/><stop offset="1" style="stop-color:#00769c;stop-opacity:1"/></linearGradient></defs></svg>