<?xml version="1.0" encoding="UTF-8" standalone="no"?><!DOCTYPE svg PUBLIC "-//W3C//DTD SVG 1.1//EN" "http://www.w3.org/Graphics/SVG/1.1/DTD/svg11.dtd"><svg width="100%" height="100%" viewBox="0 0 25 25" version="1.1" xmlns="http://www.w3.org/2000/svg" xmlns:xlink="http://www.w3.org/1999/xlink" xml:space="preserve" xmlns:serif="http://www.serif.com/" style="fill-rule:evenodd;clip-rule:evenodd;stroke-linejoin:round;stroke-miterlimit:2;"><rect id="pycharm" x="0.837" y="0.837" width="24" height="24" style="fill:none;"/><g id="pycharm1" serif:id="pycharm"><path d="M8.67,7.503l0,-0.055c0,-1 -0.667,-1.5 -1.778,-1.5l-1.666,0l0,3.055l1.723,0c1.111,0 1.721,-0.666 1.721,-1.5Zm-7.833,-6.666l0,24l24,0l0,-24l-24,0Zm2.223,3.167l4,0c2.389,0 3.833,1.389 3.833,3.445l0,0.055c0,2.278 -1.778,3.5 -4.001,3.5l-1.666,0l0,2.945l-2.166,0l0,-9.945Zm9.054,17.833l-9,0l0,-1.5l9,0l0,1.5Zm4.779,-7.777c-2.944,0.055 -5.111,-2.223 -5.111,-5.057c-0.001,-2.833 2.111,-5.166 5.166,-5.166c1.889,0 3,0.611 3.944,1.556l-1.389,1.61c-0.778,-0.722 -1.556,-1.111 -2.556,-1.111c-1.658,0 -2.873,1.375 -2.887,3.084c0.014,1.709 1.174,3.083 2.887,3.083c1.111,0 1.833,-0.445 2.61,-1.167l1.39,1.389c-0.999,1.112 -2.166,1.779 -4.054,1.779Z" style="fill:url(#_Linear1);fill-rule:nonzero;"/></g><defs><linearGradient id="_Linear1" x1="0" y1="0" x2="1" y2="0" gradientUnits="userSpaceOnUse" gradientTransform="matrix(24,24,-24,24,0.837269,0.837269)"><stop offset="0" style="stop-color:#e200ff;stop-opacity:1"/><stop offset="1" style="stop-color:#00769c;stop-opacity:1"/></linearGradient></defs></svg>