<?xml version="1.0" encoding="UTF-8" standalone="no"?><!DOCTYPE svg PUBLIC "-//W3C//DTD SVG 1.1//EN" "http://www.w3.org/Graphics/SVG/1.1/DTD/svg11.dtd"><svg width="100%" height="100%" viewBox="0 0 25 25" version="1.1" xmlns="http://www.w3.org/2000/svg" xmlns:xlink="http://www.w3.org/1999/xlink" xml:space="preserve" xmlns:serif="http://www.serif.com/" style="fill-rule:evenodd;clip-rule:evenodd;stroke-linejoin:round;stroke-miterlimit:2;"><rect id="spring" x="0.512" y="0.837" width="24" height="24" style="fill:none;"/><clipPath id="_clip1"><rect id="spring.svg" x="0.512" y="0.837" width="24" height="24"/></clipPath><g clip-path="url(#_clip1)"><path d="M22.366,2.253c-0.334,0.799 -0.765,1.554 -1.284,2.247c-2.254,-2.33 -5.361,-3.648 -8.603,-3.648c-6.564,0 -11.966,5.402 -11.966,11.967c-0,3.339 1.397,6.53 3.851,8.794l0.444,0.395c2.156,1.818 4.887,2.816 7.707,2.816c6.241,0 11.486,-4.887 11.925,-11.113c0.345,-3.013 -0.568,-6.865 -2.075,-11.458l0.001,0Zm-16.274,19.459c-0.193,0.237 -0.483,0.375 -0.789,0.375c-0.558,0 -1.017,-0.459 -1.017,-1.017c-0,-0.559 0.459,-1.018 1.017,-1.018c0.234,0 0.46,0.08 0.641,0.227c0.423,0.359 0.489,0.996 0.148,1.433Zm16.199,-3.581c-2.938,3.926 -9.26,2.593 -13.285,2.791c0,-0 -0.716,0.049 -1.432,0.148c-0,-0 0.272,-0.124 0.617,-0.247c2.84,-0.988 4.174,-1.186 5.902,-2.075c3.235,-1.654 6.47,-5.284 7.112,-9.037c-1.235,3.605 -4.988,6.716 -8.396,7.976c-2.346,0.864 -6.568,1.704 -6.568,1.704l-0.173,-0.099c-2.865,-1.408 -2.964,-7.631 2.271,-9.631c2.297,-0.889 4.47,-0.395 6.964,-0.988c2.642,-0.617 5.704,-2.592 6.939,-5.185c1.383,4.173 3.062,10.643 0.049,14.643Z" style="fill:url(#_Linear2);fill-rule:nonzero;"/></g><defs><linearGradient id="_Linear2" x1="0" y1="0" x2="1" y2="0" gradientUnits="userSpaceOnUse" gradientTransform="matrix(24,24,-24,24,0.511807,0.837269)"><stop offset="0" style="stop-color:#e200ff;stop-opacity:1"/><stop offset="1" style="stop-color:#00769c;stop-opacity:1"/></linearGradient></defs></svg>