<?xml version="1.0" encoding="UTF-8" standalone="no"?><!DOCTYPE svg PUBLIC "-//W3C//DTD SVG 1.1//EN" "http://www.w3.org/Graphics/SVG/1.1/DTD/svg11.dtd"><svg width="100%" height="100%" viewBox="0 0 25 25" version="1.1" xmlns="http://www.w3.org/2000/svg" xmlns:xlink="http://www.w3.org/1999/xlink" xml:space="preserve" xmlns:serif="http://www.serif.com/" style="fill-rule:evenodd;clip-rule:evenodd;stroke-linejoin:round;stroke-miterlimit:2;"><rect id="springboot" x="0.349" y="0.837" width="24" height="24" style="fill:none;"/><g id="springboot1" serif:id="springboot"><clipPath id="_clip1"><rect id="springboot.svg" x="0.349" y="0.837" width="24" height="24"/></clipPath><g clip-path="url(#_clip1)"><path d="M24.042,11.543l-4.73,-8.184c-0.409,-0.711 -1.417,-1.295 -2.24,-1.295l-9.45,0c-0.819,0 -1.831,0.584 -2.241,1.295l-4.725,8.184c-0.409,0.711 -0.409,1.873 0,2.584l4.725,8.189c0.41,0.71 1.417,1.294 2.24,1.294l9.455,0c0.819,0 1.826,-0.584 2.241,-1.294l4.725,-8.189c0.409,-0.711 0.409,-1.873 -0,-2.584l0,0Zm-12.717,-4.951c0,-0.537 0.438,-0.974 0.975,-0.974c0.536,-0 0.974,0.437 0.974,0.974l-0,5.822c-0,0.536 -0.438,0.974 -0.974,0.974c-0.537,-0 -0.975,-0.438 -0.975,-0.974l0,-5.822Zm0.975,12.429c-3.643,0 -6.608,-2.965 -6.608,-6.607c0.005,-2.09 0.993,-4.052 2.668,-5.304c0.15,-0.112 0.332,-0.173 0.519,-0.173c0.274,0 0.532,0.131 0.696,0.351c0.111,0.15 0.172,0.332 0.172,0.519c-0,0.274 -0.131,0.533 -0.351,0.696c-2.16,1.605 -2.612,4.659 -1.007,6.819c1.604,2.16 4.659,2.612 6.819,1.007c1.238,-0.917 1.967,-2.372 1.967,-3.915c-0.004,-1.548 -0.741,-3.005 -1.986,-3.925c-0.386,-0.283 -0.466,-0.829 -0.183,-1.215c0.282,-0.386 0.828,-0.466 1.214,-0.183c1.689,1.247 2.683,3.224 2.687,5.323c0,3.647 -2.965,6.607 -6.607,6.607Z" style="fill:url(#_Linear2);fill-rule:nonzero;"/></g></g><defs><linearGradient id="_Linear2" x1="0" y1="0" x2="1" y2="0" gradientUnits="userSpaceOnUse" gradientTransform="matrix(24,24,-24,24,0.349076,0.837269)"><stop offset="0" style="stop-color:#e200ff;stop-opacity:1"/><stop offset="1" style="stop-color:#00769c;stop-opacity:1"/></linearGradient></defs></svg>