<?xml version="1.0" encoding="UTF-8" standalone="no"?><!DOCTYPE svg PUBLIC "-//W3C//DTD SVG 1.1//EN" "http://www.w3.org/Graphics/SVG/1.1/DTD/svg11.dtd"><svg width="100%" height="100%" viewBox="0 0 25 25" version="1.1" xmlns="http://www.w3.org/2000/svg" xmlns:xlink="http://www.w3.org/1999/xlink" xml:space="preserve" xmlns:serif="http://www.serif.com/" style="fill-rule:evenodd;clip-rule:evenodd;stroke-linejoin:round;stroke-miterlimit:2;"><rect id="steam" x="0.186" y="0.837" width="24" height="24" style="fill:none;"/><path d="M12.165,0.837c-6.301,0 -11.468,4.86 -11.957,11.037l6.432,2.658c0.545,-0.371 1.203,-0.59 1.912,-0.59c0.063,0 0.125,0.004 0.188,0.006l2.861,-4.142l0,-0.059c0,-2.495 2.028,-4.524 4.524,-4.524c2.494,0 4.524,2.031 4.524,4.527c0,2.496 -2.03,4.525 -4.524,4.525l-0.105,0l-4.076,2.911c0,0.052 0.004,0.105 0.004,0.159c0,1.875 -1.515,3.396 -3.39,3.396c-1.635,0 -3.016,-1.173 -3.331,-2.727l-4.605,-1.907c1.426,5.037 6.05,8.73 11.543,8.73c6.627,0 11.999,-5.373 11.999,-12c0,-6.627 -5.373,-12 -11.999,-12Zm-4.439,18.21l-1.473,-0.61c0.262,0.543 0.714,0.999 1.314,1.25c1.297,0.539 2.793,-0.076 3.332,-1.375c0.263,-0.63 0.264,-1.319 0.005,-1.949c-0.259,-0.63 -0.75,-1.121 -1.377,-1.383c-0.624,-0.26 -1.29,-0.249 -1.878,-0.03l1.523,0.63c0.956,0.4 1.409,1.5 1.009,2.455c-0.397,0.957 -1.497,1.41 -2.454,1.012l-0.001,0Zm11.415,-9.303c0,-1.662 -1.353,-3.015 -3.015,-3.015c-1.665,0 -3.015,1.353 -3.015,3.015c0,1.665 1.35,3.015 3.015,3.015c1.663,0 3.015,-1.35 3.015,-3.015Zm-5.273,-0.005c0,-1.252 1.013,-2.266 2.265,-2.266c1.249,0 2.266,1.014 2.266,2.266c0,1.251 -1.017,2.265 -2.266,2.265c-1.253,0 -2.265,-1.014 -2.265,-2.265Z" style="fill:url(#_Linear1);fill-rule:nonzero;"/><defs><linearGradient id="_Linear1" x1="0" y1="0" x2="1" y2="0" gradientUnits="userSpaceOnUse" gradientTransform="matrix(24,24,-24,24,0.186346,0.837269)"><stop offset="0" style="stop-color:#e200ff;stop-opacity:1"/><stop offset="1" style="stop-color:#00769c;stop-opacity:1"/></linearGradient></defs></svg>