<?xml version="1.0" encoding="UTF-8" standalone="no"?><!DOCTYPE svg PUBLIC "-//W3C//DTD SVG 1.1//EN" "http://www.w3.org/Graphics/SVG/1.1/DTD/svg11.dtd"><svg width="100%" height="100%" viewBox="0 0 25 25" version="1.1" xmlns="http://www.w3.org/2000/svg" xmlns:xlink="http://www.w3.org/1999/xlink" xml:space="preserve" xmlns:serif="http://www.serif.com/" style="fill-rule:evenodd;clip-rule:evenodd;stroke-linejoin:round;stroke-miterlimit:2;"><rect id="thymeleaf" x="0.024" y="0.837" width="24" height="24" style="fill:none;"/><path d="M1.751,0.837c-0.945,0 -1.707,0.761 -1.707,1.707l-0,20.586c-0,0.947 0.762,1.707 1.707,1.707l20.546,0c0.945,0 1.707,-0.761 1.707,-1.707l-0,-20.586c-0,-0.947 -0.762,-1.707 -1.707,-1.707l-20.546,0Zm18.714,3.273c-1.861,3.694 -3.3,7.627 -5.674,11.046c-1.064,1.574 -2.329,3.163 -4.16,3.86c-1.31,0.552 -2.936,0.337 -3.98,-0.647c-0.628,-0.523 -0.54,-1.43 -0.173,-2.075c0.96,-1.224 2.34,-2.02 3.59,-2.915c3.842,-2.625 7.446,-5.654 10.397,-9.27l-0,0.001Zm-1.693,1.25c-2.503,2.751 -5.381,5.16 -8.452,7.269l-0.003,0.002l-0.003,0.003c-1.327,0.979 -2.835,1.824 -3.993,3.114c-0.349,0.333 -0.583,1.042 -0.537,1.481c-0.622,-1.043 -0.8,-2.614 -0.257,-3.74c0.526,-1.19 1.742,-1.807 2.876,-2.292c3.757,-1.353 6.695,-2.926 10.369,-5.836l-0,-0.001Z" style="fill:url(#_Linear1);fill-rule:nonzero;"/><defs><linearGradient id="_Linear1" x1="0" y1="0" x2="1" y2="0" gradientUnits="userSpaceOnUse" gradientTransform="matrix(24,24,-24,24,0.0236147,0.837269)"><stop offset="0" style="stop-color:#e200ff;stop-opacity:1"/><stop offset="1" style="stop-color:#00769c;stop-opacity:1"/></linearGradient></defs></svg>