<?xml version="1.0" encoding="UTF-8" standalone="no"?><!DOCTYPE svg PUBLIC "-//W3C//DTD SVG 1.1//EN" "http://www.w3.org/Graphics/SVG/1.1/DTD/svg11.dtd"><svg width="100%" height="100%" viewBox="0 0 24 25" version="1.1" xmlns="http://www.w3.org/2000/svg" xmlns:xlink="http://www.w3.org/1999/xlink" xml:space="preserve" xmlns:serif="http://www.serif.com/" style="fill-rule:evenodd;clip-rule:evenodd;stroke-linejoin:round;stroke-miterlimit:2;"><rect id="tsnode" x="0" y="0.675" width="24" height="24" style="fill:none;"/><g id="tsnode1" serif:id="tsnode"><clipPath id="_clip1"><rect id="tsnode.svg" x="0" y="0.675" width="24" height="24"/></clipPath><g clip-path="url(#_clip1)"><path d="M11.999,0.675c-0.196,-0 -0.392,0.05 -0.568,0.153l-9.405,5.427c-0.351,0.202 -0.568,0.577 -0.568,0.983l0,10.867c0,0.406 0.216,0.781 0.568,0.984l5.787,3.344l0,-7.344l-3.065,-0l0,-1.943l8.342,-0l0,1.943l-3.065,-0l0,8.622l1.406,0.812c0.351,0.203 0.784,0.203 1.136,-0l2.317,-1.338c-0.504,-0.37 -0.914,-0.855 -1.195,-1.413l1.801,-1.042c0.361,0.59 0.806,1.06 1.48,1.25l2.174,-1.256c-0.127,-0.568 -0.698,-0.823 -1.584,-1.21l-0.553,-0.238c-1.596,-0.68 -2.655,-1.532 -2.655,-3.334c0,-1.658 1.265,-2.922 3.24,-2.922c1.406,-0 2.417,0.49 3.144,1.77l-1.723,1.105c-0.379,-0.68 -0.79,-0.948 -1.421,-0.948c-0.648,-0 -1.06,0.41 -1.06,0.948c0,0.663 0.412,0.932 1.36,1.343l0.553,0.237c1.336,0.573 2.255,1.155 2.676,2.107l0.853,-0.493c0.352,-0.203 0.568,-0.578 0.568,-0.984l0,-10.865c0,-0.406 -0.216,-0.782 -0.568,-0.984l-9.407,-5.428c-0.173,-0.101 -0.369,-0.153 -0.568,-0.153Z" style="fill:url(#_Linear2);fill-rule:nonzero;"/></g></g><defs><linearGradient id="_Linear2" x1="0" y1="0" x2="1" y2="0" gradientUnits="userSpaceOnUse" gradientTransform="matrix(24,24,-24,24,1.77636e-15,0.674538)"><stop offset="0" style="stop-color:#e200ff;stop-opacity:1"/><stop offset="1" style="stop-color:#00769c;stop-opacity:1"/></linearGradient></defs></svg>