<?xml version="1.0" encoding="UTF-8" standalone="no"?><!DOCTYPE svg PUBLIC "-//W3C//DTD SVG 1.1//EN" "http://www.w3.org/Graphics/SVG/1.1/DTD/svg11.dtd"><svg width="100%" height="100%" viewBox="0 0 25 25" version="1.1" xmlns="http://www.w3.org/2000/svg" xmlns:xlink="http://www.w3.org/1999/xlink" xml:space="preserve" xmlns:serif="http://www.serif.com/" style="fill-rule:evenodd;clip-rule:evenodd;stroke-linejoin:round;stroke-miterlimit:2;"><rect id="typescript" x="0.837" y="0.675" width="24" height="24" style="fill:none;"/><path d="M1.962,0.675c-0.623,-0 -1.125,0.502 -1.125,1.125l0,21.75c0,0.623 0.502,1.125 1.125,1.125l21.75,-0c0.623,-0 1.125,-0.502 1.125,-1.125l0,-21.75c0,-0.623 -0.502,-1.125 -1.125,-1.125l-21.75,-0Zm17.363,9.75c0.612,-0 1.154,0.037 1.627,0.111c0.446,0.066 0.884,0.18 1.306,0.34l0,2.458c-0.202,-0.141 -0.418,-0.261 -0.643,-0.361c-0.232,-0.105 -0.472,-0.192 -0.717,-0.26c-0.464,-0.13 -0.944,-0.197 -1.426,-0.2c-0.3,-0 -0.573,0.028 -0.819,0.086c-0.219,0.046 -0.429,0.128 -0.623,0.242c-0.17,0.104 -0.3,0.229 -0.393,0.374c-0.093,0.146 -0.142,0.316 -0.14,0.49c0,0.196 0.053,0.373 0.156,0.529c0.104,0.156 0.252,0.304 0.443,0.444c0.191,0.14 0.423,0.276 0.696,0.41c0.273,0.135 0.582,0.274 0.926,0.416c0.47,0.197 0.892,0.407 1.266,0.628c0.374,0.222 0.695,0.473 0.963,0.753c0.268,0.279 0.472,0.598 0.614,0.957c0.142,0.359 0.214,0.776 0.214,1.253c0,0.657 -0.125,1.21 -0.373,1.656c-0.242,0.439 -0.59,0.812 -1.012,1.085c-0.455,0.288 -0.959,0.49 -1.487,0.596c-0.566,0.12 -1.163,0.18 -1.79,0.18c-0.617,0.002 -1.233,-0.053 -1.84,-0.164c-0.525,-0.091 -1.034,-0.257 -1.512,-0.493l0,-2.63c0.904,0.768 2.051,1.194 3.237,1.2c0.333,-0 0.624,-0.03 0.872,-0.09c0.249,-0.06 0.456,-0.144 0.623,-0.25c0.166,-0.108 0.29,-0.234 0.373,-0.38c0.187,-0.347 0.158,-0.772 -0.074,-1.089c-0.148,-0.197 -0.33,-0.366 -0.537,-0.5c-0.256,-0.17 -0.526,-0.319 -0.807,-0.444c-0.332,-0.152 -0.668,-0.298 -1.007,-0.436c-0.918,-0.383 -1.602,-0.852 -2.053,-1.405c-0.45,-0.553 -0.676,-1.222 -0.676,-2.005c0,-0.614 0.123,-1.141 0.369,-1.582c0.246,-0.441 0.58,-0.804 1.004,-1.089c0.449,-0.296 0.947,-0.509 1.47,-0.629c0.58,-0.137 1.174,-0.205 1.77,-0.201Zm-15.113,0.188l9.563,-0l0,2.166l-3.432,-0l0,9.646l-2.717,-0l0,-9.646l-3.414,-0l0,-2.166Z" style="fill:url(#_Linear1);fill-rule:nonzero;"/><defs><linearGradient id="_Linear1" x1="0" y1="0" x2="1" y2="0" gradientUnits="userSpaceOnUse" gradientTransform="matrix(24,24,-24,24,0.837269,0.674538)"><stop offset="0" style="stop-color:#e200ff;stop-opacity:1"/><stop offset="1" style="stop-color:#00769c;stop-opacity:1"/></linearGradient></defs></svg>