<?xml version="1.0" encoding="UTF-8" standalone="no"?><!DOCTYPE svg PUBLIC "-//W3C//DTD SVG 1.1//EN" "http://www.w3.org/Graphics/SVG/1.1/DTD/svg11.dtd"><svg width="100%" height="100%" viewBox="0 0 25 25" version="1.1" xmlns="http://www.w3.org/2000/svg" xmlns:xlink="http://www.w3.org/1999/xlink" xml:space="preserve" xmlns:serif="http://www.serif.com/" style="fill-rule:evenodd;clip-rule:evenodd;stroke-linejoin:round;stroke-miterlimit:2;"><rect id="visualstudiocode" x="0.675" y="0.675" width="24" height="24" style="fill:none;"/><clipPath id="_clip1"><rect x="0.675" y="0.675" width="24" height="24"/></clipPath><g clip-path="url(#_clip1)"><clipPath id="_clip2"><rect id="visualstudiocode.svg" x="0.675" y="0.675" width="24" height="24"/></clipPath><g clip-path="url(#_clip2)"><path d="M23.825,3.262l-4.94,-2.377c-0.571,-0.275 -1.258,-0.159 -1.705,0.29l-9.46,8.63l-4.12,-3.128c-0.382,-0.29 -0.922,-0.266 -1.276,0.057l-1.322,1.202c-0.209,0.189 -0.328,0.458 -0.328,0.739c0,0.282 0.119,0.55 0.327,0.74l3.573,3.26l-3.573,3.26c-0.208,0.189 -0.327,0.457 -0.327,0.739c0,0.281 0.119,0.55 0.328,0.74l1.323,1.201c0.354,0.322 0.894,0.346 1.276,0.057l4.12,-3.128l9.46,8.63c0.447,0.448 1.133,0.565 1.704,0.29l4.942,-2.377c0.518,-0.25 0.848,-0.777 0.848,-1.352l-0,-16.121c-0,-0.576 -0.332,-1.103 -0.85,-1.352Zm-5.146,14.861l-7.178,-5.448l7.178,-5.448l-0,10.896Z" style="fill:url(#_Linear3);fill-rule:nonzero;"/></g></g><defs><linearGradient id="_Linear3" x1="0" y1="0" x2="1" y2="0" gradientUnits="userSpaceOnUse" gradientTransform="matrix(24,24,-24,24,0.674538,0.674538)"><stop offset="0" style="stop-color:#e200ff;stop-opacity:1"/><stop offset="1" style="stop-color:#00769c;stop-opacity:1"/></linearGradient></defs></svg>